<svg width="80.000000" height="80.000000" viewBox="0 0 80 80" fill="none" xmlns="http://www.w3.org/2000/svg" xmlns:xlink="http://www.w3.org/1999/xlink">
	<desc>
			Created with Pixso.
	</desc>
	<defs>
		<clipPath id="clip111_64">
			<rect id="logos:bitcoin" width="80.000000" height="80.000000" transform="translate(-0.500000 -0.500000)" fill="white" fill-opacity="0"/>
		</clipPath>
		<linearGradient x1="39.478382" y1="-0.519207" x2="39.478382" y2="79.491898" id="paint_linear_111_65_0" gradientUnits="userSpaceOnUse">
			<stop stop-color="#F9AA4B"/>
			<stop offset="1.000000" stop-color="#F7931A"/>
		</linearGradient>
	</defs>
	<rect id="logos:bitcoin" width="80.000000" height="80.000000" transform="translate(-0.500000 -0.500000)" fill="#FFFFFF" fill-opacity="0"/>
	<g clip-path="url(#clip111_64)">
		<path id="Vector" d="M78.3 49.17C72.95 70.61 51.23 83.64 29.82 78.3C8.38 72.95 -4.65 51.23 0.69 29.82C6.04 8.38 27.73 -4.65 49.17 0.69C70.58 6.01 83.64 27.73 78.3 49.17Z" fill="url(#paint_linear_111_65_0)" fill-opacity="1.000000" fill-rule="nonzero"/>
		<path id="Vector" d="M55.8 30.55C55.18 25.22 50.54 23.48 44.68 23.08L44.56 15.64L40.05 15.72L40.18 22.96C38.99 22.99 37.77 23.02 36.56 23.09L36.42 15.82L31.91 15.89L32.05 23.29C31.06 23.33 30.1 23.37 29.16 23.39L29.16 23.36L22.91 23.48L23.01 28.31C23.01 28.31 26.34 28.19 26.29 28.24C28.12 28.2 28.73 29.26 28.92 30.18L29.05 38.66C29.18 38.66 29.34 38.65 29.54 38.69C29.38 38.7 29.23 38.71 29.06 38.69L29.26 50.54C29.18 51.11 28.85 52.04 27.59 52.05C27.64 52.11 24.31 52.12 24.31 52.12L23.5 57.55L29.4 57.46C30.5 57.46 31.56 57.43 32.63 57.43L32.76 64.94L37.27 64.86L37.15 57.42C38.38 57.41 39.61 57.41 40.77 57.39L40.91 64.79L45.41 64.72L45.28 57.21C52.89 56.63 58.18 54.63 58.69 47.48C59.12 41.73 56.37 39.2 52.03 38.23C54.67 36.84 56.26 34.44 55.8 30.55ZM49.75 46.73C49.86 52.33 40.23 51.87 37.16 51.92L36.99 41.97C40.05 41.92 49.67 40.87 49.75 46.73ZM47.42 32.7C47.49 37.82 39.47 37.35 36.93 37.39L36.78 28.37C39.32 28.33 47.32 27.39 47.42 32.7Z" fill="#FFFFFF" fill-opacity="1.000000" fill-rule="nonzero"/>
	</g>
</svg>
