<svg width="100.000000" height="100.000000" viewBox="0 0 100 100" fill="none" xmlns="http://www.w3.org/2000/svg" xmlns:xlink="http://www.w3.org/1999/xlink">
	<desc>
			Created with Pixso.
	</desc>
	<defs>
		<clipPath id="clip111_52">
			<rect id="Frame 38" width="100.000000" height="100.000000" transform="translate(-0.500000 0.000000)" fill="white" fill-opacity="0"/>
		</clipPath>
	</defs>
	<rect id="Frame 38" width="100.000000" height="100.000000" transform="translate(-0.500000 0.000000)" fill="#FFFFFF" fill-opacity="1.000000"/>
	<g clip-path="url(#clip111_52)">
		<path id="0%" d="M66.11 53.32C66.08 74.9 56.15 87.42 39.67 87.42C23.19 87.4 13.2 74.83 13.26 53.32C13.28 31.88 23.26 19.64 39.67 19.64C56.09 19.64 66.15 31.92 66.11 53.32ZM27.35 53.32C27.32 68.42 32.18 75.95 39.67 75.95C47.17 75.95 52.02 68.42 51.98 53.32C51.98 38.47 47.12 31 39.67 31C32.2 31 27.37 38.47 27.35 53.32ZM76.5 76.6C74.01 76.6 72.66 74.83 72.66 72.74L72.66 71.82C72.66 69.7 74.06 67.94 76.5 67.94C79.01 67.94 80.35 69.7 80.35 71.82L80.35 72.74C80.35 74.84 78.98 76.6 76.5 76.6ZM76.02 86L73.8 86L85.8 68.54L88.02 68.54L76.02 86ZM76.5 70.12C75.49 70.12 75.16 71 75.16 71.82L75.16 72.74C75.16 73.57 75.49 74.41 76.5 74.41C77.54 74.41 77.85 73.57 77.85 72.74L77.85 71.82C77.85 70.98 77.57 70.12 76.5 70.12ZM85.46 86.6C82.97 86.6 81.62 84.82 81.62 82.72L81.62 81.8C81.62 79.71 83 77.93 85.46 77.93C87.97 77.93 89.31 79.69 89.31 81.8L89.31 82.72C89.31 84.82 87.94 86.6 85.46 86.6ZM85.46 80.11C84.44 80.11 84.1 80.97 84.1 81.8L84.1 82.72C84.1 83.53 84.43 84.4 85.46 84.4C86.5 84.4 86.81 83.56 86.81 82.72L86.81 81.8C86.81 80.97 86.54 80.11 85.46 80.11Z" fill="#333333" fill-opacity="1.000000" fill-rule="evenodd"/>
	</g>
</svg>
