<svg width="23.000000" height="23.000000" viewBox="0 0 23 23" fill="none" xmlns="http://www.w3.org/2000/svg" xmlns:xlink="http://www.w3.org/1999/xlink">
	<desc>
			Created with Pixso.
	</desc>
	<defs/>
	<path id="phone" d="M20.32 21.69L20.34 21.65L22.67 16.91L15.86 11.8L12.72 14.15C11.54 14.08 10.42 13.58 9.59 12.74C8.75 11.91 8.25 10.79 8.18 9.61L10.53 6.47L5.42 -0.34L0.72 1.97L0.68 1.99L0.64 2.01C0.44 2.14 0.28 2.31 0.17 2.51C0.05 2.72 -0.01 2.95 0 3.18L0 4.4C0 6.76 0.46 9.09 1.36 11.27C2.26 13.44 3.58 15.42 5.25 17.08C6.91 18.75 8.89 20.07 11.06 20.97C13.24 21.87 15.57 22.33 17.92 22.33L19.15 22.33C19.38 22.33 19.61 22.28 19.81 22.16C20.02 22.05 20.19 21.88 20.32 21.69ZM17.92 20.58C9 20.58 1.75 13.33 1.75 4.4L1.75 3.42L4.89 1.87L8.34 6.47L6.42 9.03L6.42 9.33C6.42 11.07 7.11 12.75 8.35 13.98C9.58 15.21 11.26 15.91 13 15.91L13.29 15.91L15.86 13.99L20.46 17.44L18.91 20.58L17.92 20.58Z" fill="#FFFFFF" fill-opacity="1.000000" fill-rule="evenodd"/>
</svg>
