<svg width="20.000000" height="19.000000" viewBox="0 0 20 19" fill="none" xmlns="http://www.w3.org/2000/svg" xmlns:xlink="http://www.w3.org/1999/xlink">
	<desc>
			Created with Pixso.
	</desc>
	<defs/>
	<path d="M9.99 4.12C7.15 4.12 4.86 6.3 4.86 9C4.86 11.69 7.15 13.87 9.99 13.87C12.83 13.87 15.12 11.69 15.12 9C15.12 6.3 12.83 4.12 9.99 4.12ZM9.99 12.16C8.16 12.16 6.66 10.74 6.66 9C6.66 7.25 8.16 5.83 9.99 5.83C11.83 5.83 13.33 7.25 13.33 9C13.33 10.74 11.83 12.16 9.99 12.16ZM15.33 2.79C14.67 2.79 14.14 3.29 14.14 3.92C14.14 4.55 14.67 5.06 15.33 5.06C16 5.06 16.53 4.56 16.53 3.92C16.53 3.77 16.5 3.63 16.44 3.49C16.38 3.35 16.29 3.22 16.18 3.12C16.07 3.01 15.94 2.93 15.79 2.87C15.65 2.81 15.49 2.78 15.33 2.79ZM19.99 9C19.99 7.68 20.01 6.38 19.93 5.07C19.85 3.55 19.49 2.2 18.32 1.09C17.14 -0.02 15.72 -0.37 14.12 -0.44C12.74 -0.52 11.37 -0.5 9.99 -0.5C8.61 -0.5 7.25 -0.52 5.87 -0.44C4.27 -0.37 2.85 -0.02 1.67 1.09C0.5 2.2 0.14 3.55 0.06 5.07C-0.02 6.39 0 7.69 0 9C0 10.3 -0.02 11.61 0.06 12.92C0.14 14.44 0.5 15.79 1.67 16.9C2.85 18.01 4.27 18.36 5.87 18.43C7.25 18.51 8.62 18.49 9.99 18.49C11.38 18.49 12.74 18.51 14.12 18.43C15.72 18.36 17.14 18.01 18.32 16.9C19.49 15.79 19.85 14.44 19.93 12.92C20.01 11.61 19.99 10.31 19.99 9ZM17.79 14.6C17.61 15.03 17.39 15.35 17.04 15.69C16.68 16.02 16.35 16.23 15.89 16.41C14.58 16.9 11.45 16.79 9.99 16.79C8.53 16.79 5.41 16.9 4.09 16.41C3.64 16.23 3.3 16.02 2.95 15.69C2.59 15.35 2.37 15.03 2.19 14.6C1.67 13.35 1.79 10.38 1.79 9C1.79 7.61 1.67 4.64 2.19 3.39C2.37 2.96 2.59 2.63 2.95 2.3C3.3 1.97 3.64 1.76 4.09 1.58C5.41 1.09 8.53 1.2 9.99 1.2C11.45 1.2 14.58 1.09 15.89 1.58C16.35 1.76 16.69 1.97 17.04 2.3C17.39 2.64 17.61 2.96 17.79 3.39C18.32 4.64 18.2 7.61 18.2 9C18.2 10.38 18.32 13.35 17.79 14.6Z" fill="#333333" fill-opacity="1.000000" fill-rule="evenodd"/>
</svg>
