<svg width="25.000000" height="25.000000" viewBox="0 0 25 25" fill="none" xmlns="http://www.w3.org/2000/svg" xmlns:xlink="http://www.w3.org/1999/xlink">
	<rect id="Phone" width="25.000000" height="25.000000" transform="translate(0.000000 -0.500000)" fill="#FFFFFF" fill-opacity="0"/>
	<path id="Vector" d="M17.27 13.75C16.76 13.25 16.13 13.25 15.63 13.75C15.25 14.13 14.86 14.51 14.49 14.9C14.38 15.01 14.29 15.03 14.17 14.96C13.92 14.82 13.66 14.71 13.42 14.57C12.31 13.87 11.38 12.97 10.55 11.96C10.14 11.45 9.78 10.91 9.52 10.31C9.47 10.19 9.48 10.1 9.58 10.01C9.96 9.63 10.34 9.25 10.71 8.87C11.24 8.35 11.24 7.73 10.71 7.19C10.41 6.89 10.11 6.6 9.81 6.29C9.5 5.98 9.2 5.67 8.88 5.36C8.38 4.87 7.75 4.87 7.24 5.37C6.86 5.75 6.49 6.14 6.09 6.51C5.73 6.86 5.55 7.28 5.51 7.77C5.45 8.57 5.64 9.33 5.92 10.07C6.49 11.6 7.35 12.95 8.4 14.2C9.81 15.88 11.5 17.21 13.48 18.17C14.37 18.6 15.29 18.93 16.29 18.99C16.98 19.03 17.58 18.85 18.06 18.32C18.39 17.95 18.76 17.61 19.11 17.26C19.62 16.74 19.63 16.11 19.11 15.59C18.5 14.98 17.88 14.37 17.27 13.75Z" fill="#929AA2" fill-opacity="1.000000" fill-rule="evenodd"/>
</svg>
