<svg width="56.000000" height="56.000000" viewBox="0 0 56 56" fill="none" xmlns="http://www.w3.org/2000/svg" xmlns:xlink="http://www.w3.org/1999/xlink">
	<desc>
			Created with Pixso.
	</desc>
	<defs>
		<clipPath id="clip626_20">
			<rect id="clarity:map-line" width="56.000000" height="56.000000" fill="white" fill-opacity="0"/>
		</clipPath>
	</defs>
	<rect id="clarity:map-line" width="56.000000" height="56.000000" fill="#FFFFFF" fill-opacity="0"/>
	<g clip-path="url(#clip626_20)">
		<path id="Vector" d="M52.25 9.62C52.06 9.47 51.83 9.36 51.59 9.31C51.35 9.26 51.1 9.26 50.86 9.33L35.91 14L20.93 6.39C20.73 6.29 20.51 6.24 20.28 6.24C20.05 6.24 19.83 6.29 19.63 6.39L4.07 12.75C3.78 12.87 3.54 13.07 3.37 13.33C3.2 13.58 3.1 13.89 3.11 14.2L3.11 46.06C3.11 46.31 3.17 46.56 3.29 46.78C3.41 47.01 3.59 47.2 3.8 47.34C4.01 47.48 4.25 47.57 4.51 47.6C4.76 47.62 5.02 47.58 5.25 47.49L20.22 41.34L35.13 49C35.36 49.11 35.6 49.17 35.85 49.17C36.01 49.19 36.16 49.19 36.32 49.17L51.87 44.31C52.2 44.21 52.49 44 52.68 43.72C52.88 43.44 52.98 43.1 52.96 42.76L52.96 10.88C52.95 10.63 52.88 10.39 52.76 10.17C52.63 9.95 52.46 9.76 52.25 9.62ZM49.77 41.61L36.83 45.65L36.83 42.09L34.34 42.09L34.34 45.2L21.28 38.5L21.28 35.87L18.79 35.87L18.79 38.54L6.22 43.72L6.22 15.22L18.79 10.04L18.79 13.7L21.28 13.7L21.28 10.06L34.34 16.75L34.34 20.02L36.83 20.02L36.83 17.11L49.77 13L49.77 41.61Z" fill="#000000" fill-opacity="1.000000" fill-rule="nonzero"/>
		<path id="Vector" d="M34.34 23.42L36.83 23.42L36.83 29.35L34.34 29.35L34.34 23.42Z" fill="#000000" fill-opacity="1.000000" fill-rule="nonzero"/>
		<path id="Vector" d="M34.34 32.75L36.83 32.75L36.83 38.68L34.34 38.68L34.34 32.75Z" fill="#000000" fill-opacity="1.000000" fill-rule="nonzero"/>
		<path id="Vector" d="M18.79 17.2L21.27 17.2L21.27 23.13L18.79 23.13L18.79 17.2Z" fill="#000000" fill-opacity="1.000000" fill-rule="nonzero"/>
		<path id="Vector" d="M18.79 26.64L21.27 26.64L21.27 32.47L18.79 32.47L18.79 26.64Z" fill="#000000" fill-opacity="1.000000" fill-rule="nonzero"/>
	</g>
</svg>
