<svg width="22.000000" height="22.000000" viewBox="0 0 22 22" fill="none" xmlns="http://www.w3.org/2000/svg" xmlns:xlink="http://www.w3.org/1999/xlink">
	<path d="M12.96 3.07L20.43 10.54L0.45 10.54C0.2 10.54 0 10.74 0 11C0 11.25 0.2 11.45 0.45 11.45L20.43 11.45L12.96 18.92C12.79 19.1 12.79 19.39 12.97 19.57C13.15 19.74 13.43 19.74 13.61 19.57L21.86 11.32C22.04 11.14 22.04 10.85 21.86 10.67C21.86 10.67 21.86 10.67 21.86 10.67L13.61 2.42C13.43 2.24 13.14 2.25 12.96 2.43C12.79 2.61 12.79 2.89 12.96 3.07L12.96 3.07Z" fill="#FFC107" fill-opacity="1.000000" fill-rule="nonzero"/>
	<path d="M22 11C22 11.12 21.95 11.23 21.86 11.32L13.61 19.57C13.43 19.75 13.14 19.74 12.96 19.56C12.79 19.38 12.79 19.1 12.96 18.92L20.89 11L12.96 3.07C12.79 2.89 12.79 2.6 12.97 2.42C13.15 2.25 13.43 2.25 13.61 2.42L21.86 10.67C21.95 10.76 22 10.87 22 11Z" fill="#FFFFFF" fill-opacity="1.000000" fill-rule="nonzero"/>
	<path d="M22 11C22 11.25 21.79 11.45 21.54 11.45L0.45 11.45C0.2 11.45 0 11.25 0 11C0 10.74 0.2 10.54 0.45 10.54L21.54 10.54C21.79 10.54 22 10.74 22 11Z" fill="#FFFFFF" fill-opacity="1.000000" fill-rule="nonzero"/>
</svg>
