<svg width="22.000000" height="22.000000" viewBox="0 0 22 22" fill="none" xmlns="http://www.w3.org/2000/svg" xmlns:xlink="http://www.w3.org/1999/xlink">
	<desc>
			Created with Pixso.
	</desc>
	<defs>
		<clipPath id="clip111_22">
			<rect id="cil:phone" width="22.000002" height="21.999998" transform="translate(22.000000 0.000000) rotate(90.000000)" fill="white" fill-opacity="0"/>
		</clipPath>
	</defs>
	<rect id="cil:phone" width="22.000002" height="21.999998" transform="translate(22.000000 0.000000) rotate(90.000000)" fill="#FFFFFF" fill-opacity="0"/>
	<g clip-path="url(#clip111_22)">
		<path id="Vector" d="M18.12 19.48L18.14 19.45L19.99 15.69L14.59 11.64L12.1 13.5C11.16 13.45 10.27 13.05 9.61 12.38C8.94 11.72 8.54 10.83 8.49 9.89L10.35 7.4L6.3 2L2.57 3.83L2.54 3.85L2.51 3.87C2.35 3.96 2.22 4.1 2.13 4.26C2.04 4.43 1.99 4.61 1.99 4.79L1.99 5.76C1.99 7.63 2.36 9.48 3.08 11.21C3.79 12.94 4.84 14.51 6.16 15.83C7.48 17.15 9.05 18.2 10.78 18.91C12.51 19.63 14.36 20 16.23 20L17.2 20C17.38 20 17.56 19.95 17.73 19.86C17.89 19.77 18.03 19.64 18.12 19.48ZM16.23 18.61C9.14 18.61 3.38 12.85 3.38 5.76L3.38 4.98L5.88 3.75L8.62 7.41L7.09 9.44L7.09 9.67C7.09 11.06 7.65 12.39 8.63 13.37C9.61 14.34 10.93 14.9 12.32 14.9L12.55 14.9L14.59 13.37L18.24 16.11L17.01 18.61L16.23 18.61Z" fill="#333333" fill-opacity="1.000000" fill-rule="nonzero"/>
	</g>
</svg>
